<?xml version="1.0" standalone="no"?>
<!DOCTYPE svg PUBLIC "-//W3C//DTD SVG 20010904//EN"
 "http://www.w3.org/TR/2001/REC-SVG-20010904/DTD/svg10.dtd">
<svg version="1.0" xmlns="http://www.w3.org/2000/svg"
 width="225.000000pt" height="225.000000pt" viewBox="0 0 225.000000 225.000000"
 preserveAspectRatio="xMidYMid meet">

<g transform="translate(0.000000,225.000000) scale(0.100000,-0.100000)"
fill="#000000" stroke="none">
<path d="M809 1623 c-17 -38 -40 -89 -51 -115 -11 -25 -43 -68 -69 -94 -48
-47 -50 -48 -82 -36 -18 7 -49 11 -68 11 -26 -1 -28 -3 -9 -6 42 -7 91 -25 88
-31 -21 -45 -66 -102 -80 -102 -19 0 -25 -16 -8 -22 7 -2 6 -23 -5 -63 -8 -32
-15 -80 -15 -106 0 -46 -1 -48 -37 -59 -44 -14 -73 -37 -33 -26 69 20 67 21
75 -26 4 -23 14 -60 22 -80 13 -32 13 -39 0 -60 -21 -31 -33 -98 -18 -98 6 0
11 12 11 28 1 15 7 38 14 50 13 24 13 24 48 -26 27 -37 35 -56 31 -78 -4 -29
-4 -29 10 -6 13 22 14 22 30 4 9 -10 17 -27 17 -37 0 -14 3 -16 11 -8 9 9 22
7 51 -8 33 -17 37 -23 28 -35 -13 -14 0 -20 14 -6 4 4 57 7 116 7 99 0 110 -2
119 -20 9 -18 10 -18 10 7 1 38 38 46 106 24 110 -34 240 -13 334 54 48 35 55
37 48 10 -3 -11 -2 -22 3 -25 10 -6 23 42 15 55 -3 5 8 28 24 51 36 48 47 38
38 -36 -2 -25 -1 -45 4 -45 14 0 22 69 12 108 -7 28 -5 48 8 82 18 49 29 56
58 41 12 -7 22 -7 25 -2 4 5 -9 15 -29 21 -31 10 -34 14 -29 43 3 18 7 38 10
45 6 20 49 14 108 -17 31 -17 56 -26 56 -21 0 17 -76 55 -120 60 l-45 5 -3 47
c-3 40 0 47 18 53 12 4 43 4 68 0 26 -4 44 -4 40 0 -13 14 -80 23 -109 15 -22
-7 -29 -5 -29 6 0 8 5 14 10 14 17 0 11 17 -9 23 -27 7 -37 58 -15 74 26 19
92 35 114 28 12 -4 20 -2 20 4 0 18 -83 12 -125 -9 -40 -21 -41 -20 -65 22 -8
13 -4 19 18 27 26 11 26 11 -9 7 -29 -3 -42 1 -58 18 -12 12 -21 28 -21 34 0
7 -6 12 -13 12 -19 0 -70 57 -63 69 4 6 16 11 27 11 10 0 19 5 19 11 0 7 -12
9 -34 5 -33 -6 -35 -5 -47 31 -17 53 -68 153 -77 153 -19 0 -19 -13 -2 -43 10
-18 30 -63 45 -102 22 -58 24 -73 14 -92 -7 -13 -10 -26 -6 -29 3 -3 10 4 16
15 11 20 12 20 41 -12 l29 -32 -25 -26 c-26 -27 -48 -95 -34 -104 4 -3 11 10
14 29 4 18 18 46 32 61 l25 27 30 -28 c24 -23 27 -29 14 -37 -16 -8 -45 -58
-45 -77 0 -5 5 -10 10 -10 6 0 10 6 10 14 0 15 37 66 49 66 17 0 41 -60 35
-87 -6 -24 -5 -26 8 -15 13 10 17 10 22 -5 4 -10 1 -20 -8 -25 -23 -13 -46
-38 -46 -50 0 -7 10 -2 23 10 33 32 50 28 45 -8 -3 -16 -1 -30 3 -30 15 0 16
-62 0 -78 -12 -11 -13 -16 -3 -20 22 -7 13 -60 -15 -88 -19 -17 -22 -25 -10
-21 18 7 23 -9 8 -32 -7 -11 -13 -10 -32 8 -30 28 -38 17 -10 -13 25 -26 23
-45 -8 -86 -19 -24 -20 -24 -40 -6 -12 11 -21 14 -21 9 0 -6 7 -16 15 -23 14
-11 14 -15 -2 -33 -51 -57 -151 -98 -239 -99 -60 0 -135 17 -133 30 0 4 18 22
40 41 38 33 40 33 59 16 22 -20 26 -14 10 16 -9 15 -5 29 16 66 l28 46 21 -27
c20 -26 35 -33 35 -18 0 4 -11 19 -24 33 -24 26 -24 28 -10 78 9 28 18 51 20
51 20 0 74 -32 92 -54 11 -15 23 -22 26 -17 9 15 -52 70 -87 79 -31 8 -32 10
-32 60 0 47 2 52 25 57 14 3 48 -1 75 -10 59 -18 55 -17 55 -7 0 13 -71 32
-119 32 -34 0 -41 3 -41 20 0 11 -7 20 -15 20 -9 0 -15 -10 -15 -26 0 -14 -10
-35 -22 -46 l-23 -19 28 6 29 6 -7 -53 c-11 -89 -26 -130 -44 -122 -46 19 -90
25 -108 15 -15 -9 -12 -10 20 -11 21 0 51 -7 68 -15 l30 -16 -26 -42 c-23 -39
-27 -42 -65 -39 -24 2 -40 -1 -40 -7 0 -6 11 -11 25 -11 14 0 25 -4 25 -9 0
-14 -66 -69 -112 -92 l-41 -21 -24 31 c-26 34 -49 49 -94 61 -46 13 -34 -3 21
-28 42 -19 80 -56 68 -67 -4 -5 -66 -7 -118 -5 l-45 2 30 14 c29 15 29 15 -22
9 -52 -6 -113 13 -113 34 0 7 48 31 90 45 8 2 2 5 -15 5 -16 1 -45 -8 -64 -20
-31 -19 -34 -19 -52 -3 -25 23 -24 31 7 47 15 8 22 17 17 20 -6 4 -22 -2 -37
-14 l-26 -20 -30 47 c-16 27 -30 51 -30 55 0 4 17 15 38 25 20 9 32 19 25 21
-6 2 -26 -3 -42 -12 -31 -15 -31 -15 -41 10 -6 15 -13 44 -16 66 -6 34 -4 39
12 39 11 0 34 -9 53 -21 18 -11 35 -18 37 -16 8 8 -33 37 -71 50 -40 14 -51
36 -34 68 19 36 71 33 152 -9 4 -2 7 1 7 7 0 22 -62 43 -112 39 l-49 -5 7 31
c9 41 22 76 29 76 3 0 14 -15 25 -32 17 -28 20 -30 20 -12 0 12 -9 33 -21 47
l-20 27 32 46 32 47 18 -24 c13 -17 19 -20 19 -9 0 9 -5 21 -12 28 -34 34 120
121 222 126 36 2 66 8 68 15 5 15 -104 15 -147 0 -35 -12 -50 -7 -34 13 6 7
20 40 32 73 12 33 31 74 41 92 18 30 17 43 -2 43 -5 0 -23 -30 -39 -67z"/>
<path d="M714 1341 c4 -6 11 -9 16 -6 15 9 79 -22 105 -52 13 -15 25 -22 25
-16 0 7 -13 27 -28 44 -22 24 -38 32 -76 36 -36 4 -47 3 -42 -6z"/>
<path d="M1150 1261 c-36 -19 -78 -77 -65 -89 4 -4 10 -1 12 6 12 32 57 72 89
78 19 3 34 10 34 15 0 15 -33 10 -70 -10z"/>
<path d="M662 1255 c3 -3 29 -18 59 -33 44 -22 59 -36 78 -75 24 -50 38 -56
27 -13 -9 37 -56 87 -101 107 -37 17 -75 25 -63 14z"/>
<path d="M1469 1201 c-16 -16 -29 -38 -29 -48 1 -17 1 -17 15 1 8 11 15 24 15
28 0 5 19 17 43 28 39 17 40 19 14 19 -19 1 -39 -9 -58 -28z"/>
<path d="M1538 1044 c-27 -14 -48 -42 -48 -64 0 -6 15 5 34 24 18 20 43 36 55
36 11 0 21 5 21 10 0 14 -31 12 -62 -6z"/>
<path d="M1116 983 c-32 -31 -26 -46 7 -15 12 12 41 26 62 31 l40 9 -41 1
c-32 1 -47 -5 -68 -26z"/>
<path d="M721 864 c-17 -14 -31 -30 -31 -36 0 -5 14 2 31 16 18 15 43 26 60
26 16 0 29 5 29 10 0 20 -59 10 -89 -16z"/>
</g>
</svg>
